<svg xmlns="http://www.w3.org/2000/svg">
  <symbol id="icon-main-block" viewBox="0 0 58 47" fill="none" xmlns="http://www.w3.org/2000/svg">
    <path fill-rule="evenodd" clip-rule="evenodd" d="M23.2042 3.8439C22.9797 3.98875 22.7184 4.05931 22.4534 4.04074V4.04445C19.4096 4.04445 16.8922 6.24309 16.8701 7.5541C16.8701 8.20033 17.3744 8.50115 18.0552 8.62743C20.3776 9.02853 21.6621 9.94958 23.4434 12.7833C24.7832 14.8687 26.4594 17.5061 27.4927 19.1318C28.0292 19.9758 28.3923 20.5471 28.4451 20.6271C28.6696 20.9725 28.7948 21.0096 28.9604 21.0096C29.126 21.0096 29.2585 20.9762 29.494 20.6271C29.5453 20.5435 29.9418 19.923 30.5219 19.0151C31.5657 17.3813 33.2041 14.817 34.4958 12.7759C36.3249 9.93101 37.5652 9.02481 39.8839 8.62371C40.5722 8.49744 41.069 8.19661 41.069 7.55039C41.069 6.24309 38.5663 4.04074 35.5042 4.04074C35.2392 4.05931 34.9742 3.98875 34.7534 3.8439C34.5326 3.69906 34.3633 3.48365 34.2712 3.23111C33.7633 2.25435 33.0015 1.43729 32.0703 0.869057C31.1392 0.300828 30.0682 0 28.9788 0C27.8894 0 26.8184 0.300828 25.8872 0.869057C24.9524 1.441 24.1905 2.25435 23.6863 3.23111C23.598 3.48365 23.425 3.69906 23.2042 3.8439ZM21.2535 15.1899C18.7435 11.242 15.6298 9.96815 12.6928 9.96815H12.6892C8.78054 9.96815 7.36726 12.0405 7.36726 12.8836C7.36726 13.2253 7.5476 13.5298 8.14015 13.5298C10.9262 13.5298 12.6781 15.1973 14.0362 17.4294C15.3943 19.6652 22.1479 30.6064 22.2362 30.7327C22.2767 30.8144 22.3393 30.8886 22.4166 30.9369C22.4975 30.9889 22.5859 31.0149 22.6779 31.0149C22.7736 31.0149 22.8656 30.9889 22.9465 30.9406C23.0275 30.8924 23.0974 30.8218 23.1416 30.7401C23.2373 30.5841 26.7963 24.9352 26.8809 24.8164C26.9545 24.7087 26.995 24.5824 26.9987 24.4524C26.995 24.3261 26.9582 24.2036 26.8846 24.1033C26.8184 23.9808 22.5307 17.1917 21.2535 15.1899ZM20.3702 46.346C21.1174 46.7768 21.9639 46.9996 22.8251 46.9996C23.6863 47.0107 24.5365 46.7916 25.2873 46.3608C26.0381 45.9337 26.6601 45.3098 27.0944 44.5558C28.0808 42.97 42.5559 19.6615 43.9103 17.4331C45.2647 15.2048 47.0129 13.5335 49.8027 13.5335C50.3952 13.5335 50.5793 13.229 50.5793 12.8873C50.5793 12.0442 49.1476 9.97186 45.2389 9.97186C42.2909 9.97186 39.1883 11.2457 36.6783 15.1936C35.3901 17.1917 25.4051 33.0761 23.2925 36.4781C23.2005 36.6378 23.0202 36.8903 22.7662 36.8903C22.5123 36.8903 22.3834 36.7343 22.2215 36.4781C17.9375 29.7113 12.196 20.5825 12.196 20.5825C9.84787 16.8018 7.13171 15.8807 4.79831 15.8807C1.70307 15.8807 -0.000976562 17.5037 -0.000976562 18.577C-0.000976562 18.9595 0.164643 19.3718 0.90073 19.3718C2.76303 19.3718 3.46231 20.3485 5.516 23.6911C7.07282 26.1534 18.5668 44.5447 18.5668 44.5447C19.0011 45.2949 19.6231 45.9151 20.3702 46.346ZM52.4784 23.6911C54.5357 20.3485 55.2313 19.3718 57.0936 19.3718H57.0973C57.826 19.3718 57.999 18.9595 57.999 18.577C57.999 17.5037 56.295 15.8807 53.1997 15.8807C50.8737 15.8807 48.1759 16.8018 45.8021 20.5825C45.8021 20.5825 31.2533 43.6682 31.1576 43.8316C31.0141 43.9876 30.9221 44.1807 30.8889 44.3887C30.9221 44.5967 31.0141 44.7861 31.1576 44.9347C31.6213 45.5772 32.2323 46.0971 32.9352 46.4574C33.6382 46.8139 34.4148 46.9996 35.2024 46.9996C36.0599 47.0033 36.9064 46.7768 37.6536 46.346C38.4007 45.9151 39.0227 45.2949 39.457 44.5447C39.457 44.5447 50.9547 26.1534 52.4784 23.6911Z" fill="#D5C9BE"/>
  </symbol>
  <symbol id="icon-insta" viewBox="0 0 32 32" fill="none" xmlns="http://www.w3.org/2000/svg">
    <g clip-path="url(#clip0_214_359)">
    <path d="M21.332 5.33301H10.6654C7.71985 5.33301 5.33203 7.72082 5.33203 10.6663V21.333C5.33203 24.2785 7.71985 26.6663 10.6654 26.6663H21.332C24.2775 26.6663 26.6654 24.2785 26.6654 21.333V10.6663C26.6654 7.72082 24.2775 5.33301 21.332 5.33301Z" stroke="currentColor" stroke-width="2" stroke-linecap="round" stroke-linejoin="round"/>
    <path d="M16 20C18.2091 20 20 18.2091 20 16C20 13.7909 18.2091 12 16 12C13.7909 12 12 13.7909 12 16C12 18.2091 13.7909 20 16 20Z" stroke="currentColor" stroke-width="2" stroke-linecap="round" stroke-linejoin="round"/>
    <path d="M22 10V10.001" stroke="currentColor" stroke-width="2" stroke-linecap="round" stroke-linejoin="round" fill="currentColor"/>
    </g>
    <defs>
    <clipPath id="clip0_214_359">
    <rect width="32" height="32" fill="currentColor"/>
    </clipPath>
    </defs>
  </symbol>
  <symbol id="icon-tiktok" viewBox="0 0 32 32" fill="none" xmlns="http://www.w3.org/2000/svg">
    <g clip-path="url(#clip0_214_360)">
    <path d="M12.0013 15.9997C10.9465 15.9997 9.91533 16.3125 9.03826 16.8985C8.1612 17.4845 7.47761 18.3175 7.07395 19.292C6.67028 20.2666 6.56466 21.3389 6.77045 22.3735C6.97624 23.4081 7.48419 24.3584 8.23007 25.1042C8.97595 25.8501 9.92626 26.3581 10.9608 26.5639C11.9954 26.7697 13.0677 26.664 14.0423 26.2604C15.0168 25.8567 15.8498 25.1731 16.4358 24.296C17.0218 23.419 17.3346 22.3878 17.3346 21.333V5.33301C17.3346 7.10112 18.037 8.79681 19.2873 10.0471C20.5375 11.2973 22.2332 11.9997 24.0013 11.9997" stroke="currentColor" stroke-width="2" stroke-linecap="round" stroke-linejoin="round"/>
    </g>
    <defs>
    <clipPath id="clip0_214_360">
    <rect width="32" height="32" fill="white"/>
    </clipPath>
    </defs>
  </symbol>
  <symbol id="icon-facebook" viewBox="0 0 32 32" fill="none" xmlns="http://www.w3.org/2000/svg">
    <g clip-path="url(#clip0_214_362)">
    <path d="M9.33203 13.3333V18.6667H13.332V28H18.6654V18.6667H22.6654L23.9987 13.3333H18.6654V10.6667C18.6654 10.313 18.8058 9.97391 19.0559 9.72386C19.3059 9.47381 19.6451 9.33333 19.9987 9.33333H23.9987V4H19.9987C18.2306 4 16.5349 4.70238 15.2847 5.95262C14.0344 7.20286 13.332 8.89856 13.332 10.6667V13.3333H9.33203Z" stroke="currentColor" stroke-width="2" stroke-linecap="round" stroke-linejoin="round"/>
    </g>
    <defs>
    <clipPath id="clip0_214_362">
    <rect width="32" height="32" fill="white"/>
    </clipPath>
    </defs>
  </symbol>
  <symbol id="icon-in" viewBox="0 0 32 32" fill="none" xmlns="http://www.w3.org/2000/svg">
    <g clip-path="url(#clip0_214_361)">
    <path d="M23.9987 5.33301H7.9987C6.52594 5.33301 5.33203 6.52692 5.33203 7.99967V23.9997C5.33203 25.4724 6.52594 26.6663 7.9987 26.6663H23.9987C25.4715 26.6663 26.6654 25.4724 26.6654 23.9997V7.99967C26.6654 6.52692 25.4715 5.33301 23.9987 5.33301Z" stroke="#D5C9BE" stroke-width="2" stroke-linecap="round" stroke-linejoin="round"/>
    <path d="M10.668 14.667V21.3337" stroke="#D5C9BE" stroke-width="2" stroke-linecap="round" stroke-linejoin="round"/>
    <path d="M10.668 10.667V10.6803" stroke="#D5C9BE" stroke-width="2" stroke-linecap="round" stroke-linejoin="round"/>
    <path d="M16 21.3337V14.667" stroke="#D5C9BE" stroke-width="2" stroke-linecap="round" stroke-linejoin="round"/>
    <path d="M21.3333 21.3337V17.3337C21.3333 16.6264 21.0524 15.9481 20.5523 15.448C20.0522 14.9479 19.3739 14.667 18.6667 14.667C17.9594 14.667 17.2811 14.9479 16.781 15.448C16.281 15.9481 16 16.6264 16 17.3337" stroke="white" stroke-width="2" stroke-linecap="round" stroke-linejoin="round"/>
    </g>
    <defs>
    <clipPath id="clip0_214_361">
    <rect width="32" height="32" fill="white"/>
    </clipPath>
    </defs>
  </symbol>
  <symbol id="icon-tg" viewBox="0 0 32 32" fill="none" xmlns="http://www.w3.org/2000/svg">
    <g clip-path="url(#clip0_214_363)">
    <path d="M20 13.333L14.6667 18.6663L22.6667 26.6663L28 5.33301L4 14.6663L9.33333 17.333L12 25.333L16 19.9997" stroke="currentColor" stroke-width="2" stroke-linecap="round" stroke-linejoin="round"/>
    </g>
    <defs>
    <clipPath id="clip0_214_363">
    <rect width="32" height="32" fill="white"/>
    </clipPath>
    </defs>
  </symbol>
  <symbol id="icon-yt" viewBox="0 0 32 32" fill="none" xmlns="http://www.w3.org/2000/svg">
    <g clip-path="url(#clip0_214_364)">
    <path d="M22.6667 6.66699H9.33333C6.38781 6.66699 4 9.05481 4 12.0003V20.0003C4 22.9458 6.38781 25.3337 9.33333 25.3337H22.6667C25.6122 25.3337 28 22.9458 28 20.0003V12.0003C28 9.05481 25.6122 6.66699 22.6667 6.66699Z" stroke="currentColor" stroke-width="2" stroke-linecap="round" stroke-linejoin="round"/>
    <path d="M13.332 12L19.9987 16L13.332 20V12Z" stroke="white" stroke-width="2" stroke-linecap="round" stroke-linejoin="round"/>
    </g>
    <defs>
    <clipPath id="clip0_214_364">
    <rect width="32" height="32" fill="white"/>
    </clipPath>
    </defs>
  </symbol>
</svg>
